<svg width="22" height="21" viewBox="0 0 22 21" fill="none" xmlns="http://www.w3.org/2000/svg">
<path d="M2.5 18V11.0769C2.5 10.6794 2.17774 10.3571 1.78022 10.3571C1.13307 10.3571 0.814662 9.56964 1.27996 9.11985L9.34684 1.32187C10.1129 0.581316 11.3251 0.571392 12.1032 1.2993L20.2898 8.95777C20.8256 9.45893 20.4709 10.3571 19.7373 10.3571C19.2907 10.3571 18.9286 10.7192 18.9286 11.1659V18C18.9286 19.1046 18.0331 20 16.9286 20H15.2143C14.1097 20 13.2143 19.1046 13.2143 18V16.2857C13.2143 15.1811 12.3189 14.2857 11.2143 14.2857H10.2143C9.10972 14.2857 8.21428 15.1811 8.21428 16.2857V18C8.21428 19.1046 7.31885 20 6.21428 20H4.5C3.39543 20 2.5 19.1046 2.5 18Z" stroke="#403F3E" stroke-width="1.2"/>
</svg>
