<svg width="21" height="21" viewBox="0 0 21 21" fill="none" xmlns="http://www.w3.org/2000/svg">
<path d="M13.4185 10.6727C13.4185 12.2389 12.1222 13.5273 10.5 13.5273C8.87768 13.5273 7.58145 12.2389 7.58145 10.6727C7.58145 9.10656 8.87768 7.8182 10.5 7.8182C12.1222 7.8182 13.4185 9.10656 13.4185 10.6727Z" stroke="#403F3E" stroke-width="1.2"/>
<path d="M5.40043 4.48371L4.49928 4.33625C3.66651 4.19997 2.8378 4.60105 2.42799 5.33871L1.68977 6.6675C1.27671 7.41102 1.37909 8.33446 1.94499 8.96944L2.27708 9.34207C2.95294 10.1004 2.95294 11.245 2.27708 12.0034L1.90934 12.416C1.36101 13.0313 1.24624 13.9199 1.62023 14.6543L2.39171 16.1692C2.81315 16.9967 3.74878 17.4253 4.65068 17.2039L5.4152 17.0163C6.462 16.7593 7.51242 17.4246 7.72757 18.4808C7.90766 19.3649 8.68521 20 9.58746 20H11.4448C12.1655 20 12.8305 19.6122 13.1855 18.9849L13.6599 18.1465C14.0841 17.3968 14.9407 17.0029 15.786 17.1689L16.4068 17.2908C17.2838 17.463 18.1687 17.0324 18.5743 16.2359L19.4176 14.5799C19.7725 13.8831 19.6887 13.0434 19.2031 12.4304L18.5808 11.6449C17.9774 10.8831 18.0089 9.79785 18.6554 9.07234L19.055 8.62399C19.6209 7.989 19.7233 7.06556 19.3102 6.32204L18.6469 5.12799C18.2013 4.32607 17.2674 3.93005 16.3812 4.16734L15.9325 4.28748C14.8726 4.57131 13.7819 3.9481 13.4882 2.89083L13.3698 2.46471C13.1294 1.59907 12.3412 1 11.4428 1H9.70067C8.73656 1 7.90966 1.68782 7.73411 2.63582L7.68997 2.87414C7.49181 3.94421 6.47442 4.65945 5.40043 4.48371Z" stroke="#403F3E" stroke-width="1.2"/>
</svg>
